# xmcd CD database file
#
# Track frame offsets:
#	150
#	7558
#	33211
#	56199
#	76941
#	93020
#	124954
#	152788
#	185815
#	212064
#	239315
#	259148
#
# Disc length: 3793 seconds
#
# Revision: 1
# Processed by: cddbd v1.5.1PL2 Copyright (c) Steve Scherf et al.
# Submitted via: CDex 1.51
#
DISCID=940ecf0c
DTITLE=David Garfield and Friends - The State Of Things
DYEAR=2005
DGENRE=Jazz
TTITLE0=Me
TTITLE1=Five Storks
TTITLE2=Miles
TTITLE3=Black Cadillac
TTITLE4=Forest For The Trees
TTITLE5=If Six Was Nine
TTITLE6=Aliens
TTITLE7=Naima
TTITLE8=Toast For Eli
TTITLE9=Nardis
TTITLE10=Chimo
TTITLE11=Tsunami
EXTD=YEAR: 2005
EXTT0=
EXTT1=
EXTT2=
EXTT3=
EXTT4=
EXTT5=
EXTT6=
EXTT7=
EXTT8=
EXTT9=
EXTT10=
EXTT11=
PLAYORDER=
